<?xml version="1.0" encoding="UTF-8"?>
<svg id="Layer_1" data-name="Layer 1" xmlns="http://www.w3.org/2000/svg" viewBox="0 0 396.39 754.06">
  <defs>
    <style>
      .cls-1 {
        fill: #716968;
      }

      .cls-2 {
        fill: #505155;
      }

      .cls-3 {
        fill: #777272;
      }

      .cls-4 {
        fill: #525459;
      }

      .cls-5 {
        fill: #8e8c8e;
      }

      .cls-6 {
        fill: #716867;
      }

      .cls-7 {
        fill: #908e8f;
      }

      .cls-8 {
        fill: #46484d;
      }

      .cls-9 {
        fill: #898989;
      }

      .cls-10 {
        fill: #7b7b7b;
      }

      .cls-11 {
        fill: #7c7778;
      }

      .cls-12 {
        fill: #504c52;
      }

      .cls-13 {
        fill: #8b8b8b;
      }

      .cls-14 {
        fill: #757476;
      }

      .cls-15 {
        fill: #766260;
      }

      .cls-16 {
        fill: #716766;
      }

      .cls-17 {
        fill: #746e6e;
      }

      .cls-18 {
        fill: #9c9c9c;
      }

      .cls-19 {
        fill: #797979;
      }

      .cls-20 {
        fill: #7a7a7c;
      }

      .cls-21 {
        fill: #767578;
      }

      .cls-22 {
        fill: #858385;
      }

      .cls-23 {
        fill: #c3c3c3;
      }

      .cls-24 {
        fill: #766f6f;
      }

      .cls-25 {
        fill: #7e7c80;
      }

      .cls-26 {
        fill: #b8b8b8;
      }

      .cls-27 {
        fill: #45474a;
      }

      .cls-28 {
        fill: #655e64;
      }

      .cls-29 {
        fill: #726765;
      }

      .cls-30 {
        fill: #6b3636;
      }

      .cls-31 {
        fill: #736b6b;
      }

      .cls-32 {
        fill: #848484;
      }

      .cls-33 {
        fill: #7d7879;
      }

      .cls-34 {
        fill: #756e6d;
      }

      .cls-35 {
        fill: #313845;
      }

      .cls-36 {
        fill: #c2c2c2;
      }

      .cls-37 {
        fill: #544f53;
      }

      .cls-38 {
        fill: #837f81;
      }

      .cls-39 {
        fill: #383f45;
      }

      .cls-40 {
        fill: #5b5c5f;
      }

      .cls-41 {
        fill: #737275;
      }

      .cls-42 {
        fill: #5a5a5b;
      }

      .cls-43 {
        fill: #646568;
      }

      .cls-44 {
        fill: #7c7879;
      }

      .cls-45 {
        fill: #756f6f;
      }

      .cls-46 {
        fill: #4e4e57;
      }

      .cls-47 {
        fill: #818080;
      }

      .cls-48 {
        fill: #5d575e;
      }

      .cls-49 {
        fill: #bababa;
      }

      .cls-50 {
        fill: #79787a;
      }

      .cls-51 {
        fill: #7e7e7e;
      }

      .cls-52 {
        fill: #8f8f8f;
      }

      .cls-53 {
        fill: #c9c9c9;
      }

      .cls-54 {
        fill: #737274;
      }

      .cls-55 {
        fill: #3a4044;
      }

      .cls-56 {
        fill: #7b797b;
      }

      .cls-57 {
        fill: #777172;
      }

      .cls-58 {
        fill: #756e6e;
      }

      .cls-59 {
        fill: #706665;
      }

      .cls-60 {
        fill: #7f7d7f;
      }

      .cls-61 {
        fill: #7e7a7b;
      }

      .cls-62 {
        fill: #373e44;
      }

      .cls-63 {
        fill: #7b7678;
      }

      .cls-64 {
        fill: #cecece;
      }

      .cls-65 {
        fill: #746d6c;
      }

      .cls-66 {
        fill: #726a6b;
      }

      .cls-67 {
        fill: #2d3440;
      }

      .cls-68 {
        fill: #727274;
      }

      .cls-69 {
        fill: #767070;
      }

      .cls-70 {
        fill: #79787b;
      }

      .cls-71 {
        fill: #4a4c51;
      }

      .cls-72 {
        fill: #868284;
      }

      .cls-73 {
        fill: #706867;
      }

      .cls-74 {
        fill: #707073;
      }

      .cls-75 {
        fill: #89888a;
      }

      .cls-76 {
        fill: #746d6e;
      }

      .cls-77 {
        fill: #3c4045;
      }

      .cls-78 {
        fill: #737376;
      }

      .cls-79 {
        fill: #868384;
      }

      .cls-80 {
        fill: #8a8788;
      }

      .cls-81 {
        fill: #5d5e61;
      }

      .cls-82 {
        fill: #848284;
      }

      .cls-83 {
        fill: #888586;
      }

      .cls-84 {
        fill: #7a7474;
      }

      .cls-85 {
        fill: #643837;
      }

      .cls-86 {
        fill: #7a7778;
      }

      .cls-87 {
        fill: #838082;
      }

      .cls-88 {
        fill: #8b8889;
      }

      .cls-89 {
        fill: #6c6b70;
      }

      .cls-90 {
        fill: #777679;
      }

      .cls-91 {
        fill: #8a8a8a;
      }

      .cls-92 {
        fill: #8a8889;
      }

      .cls-93 {
        fill: #735f5d;
      }

      .cls-94 {
        fill: #bbb;
      }

      .cls-95 {
        fill: #817c7e;
      }

      .cls-96 {
        fill: #75605e;
      }

      .cls-97 {
        fill: #827f80;
      }

      .cls-98 {
        fill: #bdbdbd;
      }

      .cls-99 {
        fill: #7d7979;
      }

      .cls-100 {
        fill: #5f5354;
      }

      .cls-101 {
        fill: #837f80;
      }

      .cls-102 {
        fill: #756f70;
      }

      .cls-103 {
        fill: #7d787a;
      }

      .cls-104 {
        fill: #bfbfbf;
      }

      .cls-105 {
        fill: #5a5b5f;
      }

      .cls-106 {
        fill: #787373;
      }

      .cls-107 {
        fill: #393843;
      }

      .cls-108 {
        fill: #716767;
      }

      .cls-109 {
        fill: #58494c;
      }

      .cls-110 {
        fill: #404449;
      }

      .cls-111 {
        fill: #c4c4c4;
      }

      .cls-112 {
        fill: #c8c8c8;
      }

      .cls-113 {
        fill: #747376;
      }

      .cls-114 {
        fill: #7a6a6a;
      }

      .cls-115 {
        fill: #6c6c6c;
      }

      .cls-116 {
        fill: #7e797a;
      }

      .cls-117 {
        fill: #717174;
      }

      .cls-118 {
        fill: #6d6d70;
      }

      .cls-119 {
        fill: #848182;
      }

      .cls-120 {
        fill: #716f73;
      }

      .cls-121 {
        fill: #4b4246;
      }

      .cls-122 {
        fill: #8c8c8c;
      }

      .cls-123 {
        fill: silver;
      }

      .cls-124 {
        fill: #363d44;
      }

      .cls-125 {
        fill: #777578;
      }

      .cls-126 {
        fill: #5a3d3b;
      }

      .cls-127 {
        fill: #706766;
      }

      .cls-128 {
        fill: #615459;
      }

      .cls-129 {
        fill: #7f7e7f;
      }

      .cls-130 {
        fill: #cbcbcb;
      }

      .cls-131 {
        fill: #504b4e;
      }

      .cls-132 {
        fill: #858283;
      }

      .cls-133 {
        fill: #757477;
      }

      .cls-134 {
        fill: #735f5f;
      }

      .cls-135 {
        fill: #494853;
      }

      .cls-136 {
        fill: #878587;
      }

      .cls-137 {
        fill: #868686;
      }

      .cls-138 {
        fill: #393f44;
      }

      .cls-139 {
        fill: #54555a;
      }

      .cls-140 {
        fill: #ddd;
      }

      .cls-141 {
        fill: #787374;
      }

      .cls-142 {
        fill: #828081;
      }

      .cls-143 {
        fill: #726867;
      }

      .cls-144 {
        fill: #59505a;
      }

      .cls-145 {
        fill: #777070;
      }

      .cls-146 {
        fill: #c5c5c5;
      }

      .cls-147 {
        fill: #898586;
      }

      .cls-148 {
        fill: #736866;
      }

      .cls-149 {
        fill: #dfdfdf;
      }

      .cls-150 {
        fill: #868484;
      }

      .cls-151 {
        fill: #1b2e35;
      }

      .cls-152 {
        fill: #3c4146;
      }

      .cls-153 {
        fill: #838085;
      }

      .cls-154 {
        fill: #837f83;
      }

      .cls-155 {
        fill: #9e9e9e;
      }

      .cls-156 {
        fill: #716868;
      }

      .cls-157 {
        fill: #d0d0d0;
      }

      .cls-158 {
        fill: #58595b;
      }

      .cls-159 {
        fill: #616266;
      }

      .cls-160 {
        fill: #524d52;
      }

      .cls-161 {
        fill: #756d6e;
      }

      .cls-162 {
        fill: #888;
      }

      .cls-163 {
        fill: #716866;
      }

      .cls-164 {
        fill: #726564;
      }

      .cls-165 {
        fill: #3c4044;
      }

      .cls-166 {
        fill: #777273;
      }

      .cls-167 {
        fill: #848183;
      }

      .cls-168 {
        fill: #7d7c7e;
      }

      .cls-169 {
        fill: #c7c7c7;
      }

      .cls-170 {
        fill: #424649;
      }

      .cls-171 {
        fill: #dedede;
      }

      .cls-172 {
        fill: #44474c;
      }

      .cls-173 {
        fill: #8c8a8b;
      }

      .cls-174 {
        fill: #74605f;
      }

      .cls-175 {
        fill: #818082;
      }

      .cls-176 {
        fill: #545053;
      }

      .cls-177 {
        fill: #4e5156;
      }

      .cls-178 {
        fill: #c1c1c1;
      }

      .cls-179 {
        fill: #7b7777;
      }

      .cls-180 {
        fill: #717175;
      }

      .cls-181 {
        fill: #735e5e;
      }

      .cls-182 {
        fill: #3e4146;
      }

      .cls-183 {
        fill: #807b7d;
      }

      .cls-184 {
        fill: #383f43;
      }

      .cls-185 {
        fill: #888687;
      }

      .cls-186 {
        fill: #b9b9b9;
      }

      .cls-187 {
        fill: #726b6b;
      }

      .cls-188 {
        fill: #623866;
      }

      .cls-189 {
        fill: #726a6a;
      }

      .cls-190 {
        fill: #959595;
      }

      .cls-191 {
        fill: #949494;
      }

      .cls-192 {
        fill: #979797;
      }

      .cls-193 {
        fill: #7b7a7d;
      }

      .cls-194 {
        fill: #747377;
      }

      .cls-195 {
        fill: #c6c6c6;
      }

      .cls-196 {
        fill: #1b2d3f;
      }

      .cls-197 {
        fill: #dadada;
      }

      .cls-198 {
        fill: #404346;
      }

      .cls-199 {
        fill: #75605f;
      }

      .cls-200 {
        fill: #bcbcbc;
      }

      .cls-201 {
        fill: #5e5157;
      }

      .cls-202 {
        fill: #7b7a7c;
      }

      .cls-203 {
        fill: #726969;
      }

      .cls-204 {
        fill: #706564;
      }

      .cls-205 {
        fill: #817d7f;
      }

      .cls-206 {
        fill: #7f7b7c;
      }

      .cls-207 {
        fill: #706765;
      }

      .cls-208 {
        fill: #7a797c;
      }

      .cls-209 {
        fill: #838183;
      }

      .cls-210 {
        fill: #746d6d;
      }

      .cls-211 {
        fill: #444550;
      }

      .cls-212 {
        fill: #736d6d;
      }

      .cls-213 {
        fill: #7a7a7a;
      }

      .cls-214 {
        fill: #d1d1d1;
      }

      .cls-215 {
        fill: #7d7b7e;
      }

      .cls-216 {
        fill: #726b6a;
      }

      .cls-217 {
        fill: #736765;
      }

      .cls-218 {
        fill: #434256;
      }

      .cls-219 {
        fill: #777681;
      }

      .cls-220 {
        fill: #394043;
      }

      .cls-221 {
        fill: #60535c;
      }

      .cls-222 {
        fill: #78777a;
      }

      .cls-223 {
        fill: #504d50;
      }

      .cls-224 {
        fill: #726967;
      }

      .cls-225 {
        fill: #616267;
      }

      .cls-226 {
        fill: #bebebe;
      }

      .cls-227 {
        fill: #7c7677;
      }

      .cls-228 {
        fill: #56585c;
      }

      .cls-229 {
        fill: #736c6c;
      }

      .cls-230 {
        fill: #515357;
      }

      .cls-231 {
        fill: #989898;
      }
    </style>
  </defs>
  <path class="cls-124" d="M204.64,70.41v7c-8.2,3.9-16.7,6.68-25.31,9.5-1.45.48-2.89.96-4.34,1.43-2.12.7-4.24,1.4-6.37,2.1-3.19,1.05-6.38,2.11-9.55,3.2-1.06.37-2.12.73-3.22,1.11q-1.38.48-2.78.97-2.43.68-6.43.68v2c-.75.22-1.5.45-2.27.68-8.39,2.54-16.68,5.31-24.96,8.18-3.82,1.32-7.64,2.63-11.46,3.94-.77.27-1.55.53-2.34.81-7.31,2.51-14.62,5.01-21.94,7.48-1.3.44-2.6.88-3.9,1.32-1.8.61-3.6,1.22-5.4,1.82-1.01.34-2.03.69-3.07,1.04q-2.65.73-6.65.73v-6c6.08-3.23,12.14-5.53,18.69-7.62,2.15-.7,4.31-1.41,6.46-2.12,1.12-.37,2.25-.74,3.41-1.12,5.77-1.91,11.51-3.9,17.26-5.89,2.44-.84,4.88-1.69,7.32-2.53q.94-.32,1.89-.66c8.05-2.78,16.1-5.55,24.16-8.31.75-.26,1.51-.52,2.29-.78,8.74-3,17.48-5.98,26.26-8.87,4.13-1.37,8.24-2.78,12.34-4.23,1.05-.37,2.11-.74,3.19-1.12,2.07-.73,4.14-1.47,6.21-2.21.93-.33,1.87-.66,2.83-1,.83-.3,1.67-.59,2.53-.9q2.17-.64,5.17-.64Z"/>
  <path class="cls-62" d="M204.64,84.41v7c-1.21.4-2.41.8-3.66,1.21-1.61.54-3.23,1.07-4.84,1.61-.79.26-1.58.52-2.4.79q-1.18.39-2.38.79t-2.16.71c-2.12.74-4.22,1.51-6.32,2.3-4.23,1.6-8.49,3.12-12.76,4.62-.79.28-1.57.55-2.38.84-1.65.58-3.3,1.16-4.96,1.74-2.5.88-5,1.76-7.5,2.65-1.62.57-3.23,1.14-4.85,1.71-.73.26-1.47.52-2.22.79-4.66,1.63-9.34,3.09-14.07,4.49-3.98,1.21-7.91,2.55-11.84,3.9q-1.28.44-2.59.89c-1.8.62-3.6,1.23-5.4,1.85-2.69.92-5.39,1.84-8.08,2.76-1.77.6-3.54,1.21-5.3,1.81q-1.3.44-2.62.9c-4.22,1.45-8.42,2.92-12.62,4.43-.78.28-1.56.56-2.36.85-1.45.53-2.91,1.06-4.36,1.6-3.36,1.22-5.7,1.77-9.33,1.77v-7c7.49-3.15,15.13-5.78,22.86-8.32,3.65-1.2,7.29-2.41,10.94-3.62.76-.25,1.51-.5,2.29-.76,8.24-2.74,16.45-5.55,24.66-8.37.73-.25,1.46-.5,2.21-.76,7.62-2.62,15.24-5.24,22.85-7.88,7.06-2.44,14.12-4.88,21.19-7.3,1.16-.4,2.32-.8,3.51-1.21,3.35-1.15,6.7-2.28,10.05-3.42,1-.34,2-.69,3.03-1.04.92-.31,1.84-.62,2.79-.94q1.2-.41,2.42-.82,2.2-.58,6.2-.58Z"/>
  <path class="cls-124" d="M204.64,54.41v7c-8.88,4.25-18.18,7.24-27.5,10.38-3.28,1.11-6.56,2.22-9.84,3.34-.81.28-1.63.55-2.46.83-5.27,1.79-10.52,3.62-15.76,5.49-8.89,3.16-17.84,6.13-26.8,9.09-3.09,1.02-6.18,2.05-9.27,3.07-.73.24-1.46.48-2.21.73-5.11,1.7-10.15,3.53-15.16,5.5q-1.98.57-3.98-.43-.12-2.88,0-6c2.45-2.45,4.39-2.95,7.68-4.02,1.16-.38,2.32-.76,3.51-1.16q1.83-.59,3.69-1.2t3.57-1.17c2.38-.78,4.76-1.56,7.14-2.34,11.34-3.71,22.63-7.57,33.92-11.43.84-.29,1.68-.58,2.55-.87q23.07-7.82,45.95-16.19,2-.63,5-.63Z"/>
  <path class="cls-177" d="M214.64,70.41c4.76,1.47,9.2,3.41,13.69,5.56.73.35,1.47.7,2.22,1.06,1.56.74,3.12,1.49,4.68,2.23,4.01,1.91,8.02,3.81,12.03,5.71.81.38,1.62.77,2.45,1.16,1.58.75,3.17,1.5,4.75,2.25,1.9.9,3.79,1.8,5.69,2.7,6.1,2.87,12.22,5.67,18.37,8.41.62.28,1.25.56,1.89.85,3.14,1.4,6.29,2.8,9.44,4.2,8.39,3.73,16.59,7.73,24.78,11.88,2.73,1.36,5.47,2.71,8.21,4.05q1.79.95,2.79,1.95c.04,2,.04,4,0,6-4.14-.56-7.53-1.49-11.31-3.26q-1.48-.69-2.99-1.38c-1.04-.49-2.07-.98-3.14-1.48-1.08-.5-2.16-1-3.27-1.52-2.14-1-4.29-2-6.43-3.01-2.32-1.09-4.64-2.17-6.97-3.25-8.52-3.94-16.98-8-25.44-12.06-6.99-3.35-14-6.66-21.03-9.92-3.19-1.48-6.38-2.96-9.57-4.44-6.95-3.23-13.91-6.46-20.86-9.68v-8Z"/>
  <path class="cls-139" d="M214.64,84.41c4.33.64,7.81,2.18,11.75,4.06.65.31,1.3.62,1.97.94,1.39.66,2.77,1.32,4.15,1.98,3.52,1.68,7.04,3.35,10.56,5.02.71.33,1.41.67,2.14,1.01,4.87,2.29,9.79,4.48,14.73,6.61,5.49,2.37,10.84,4.93,16.17,7.65,4.75,2.33,9.57,4.49,14.39,6.66,8.49,3.83,16.84,7.82,25.12,12.06,2,1,4,2,6,3v7c-4.33-.64-7.81-2.18-11.75-4.06-.65-.31-1.3-.62-1.96-.93-1.38-.66-2.77-1.32-4.15-1.98-3.58-1.71-7.17-3.4-10.76-5.09-.72-.34-1.45-.68-2.19-1.03-8.25-3.88-16.53-7.7-24.83-11.48-9.76-4.45-19.47-8.92-29.03-13.8-4.63-2.27-9.34-4.31-14.09-6.32-2.95-1.26-5.56-2.52-8.24-4.31q-.19-3.62,0-7Z"/>
  <path class="cls-110" d="M214.64,54.41c3.95,1.26,7.69,2.68,11.44,4.44q1.68.79,3.39,1.59c6.24,2.95,12.46,5.94,18.68,8.93,8.82,4.24,17.72,8.27,26.66,12.24,1.89.84,3.78,1.68,5.66,2.52,1.28.57,2.57,1.14,3.85,1.71q13.22,5.85,19.31,9.58v8c-.56-.26-1.12-.51-1.7-.78-5.36-2.44-10.73-4.87-16.11-7.29-3.48-1.56-6.95-3.13-10.42-4.69-1.87-.84-3.73-1.68-5.6-2.52-10.03-4.51-19.99-9.07-29.78-14.07-4.56-2.24-9.21-4.27-13.88-6.26-3.91-1.67-7.72-3.46-11.5-5.4v-8Z"/>
  <path class="cls-99" d="M189.64,596.41h14v17c-4.62.33-9.24.66-14,1v-18Z"/>
  <path class="cls-33" d="M203.64,563.41c.03,2.81.05,5.62.06,8.44,0,.8.02,1.6.03,2.43,0,2.04-.04,4.09-.09,6.13q-1,1-3.94,1.1c-3.35-.03-6.71-.07-10.06-.1v-17c4.92-.7,9.1-1.1,14-1Z"/>
  <path class="cls-227" d="M203.64,530.41v18c-4.62.33-9.24.66-14,1-.03-2.81-.05-5.62-.06-8.44,0-.8-.02-1.6-.03-2.43,0-2.04.04-4.09.09-6.13,1.72-1.72,4.09-1.37,6.44-1.56.99-.08,1.98-.17,3-.25,1.52-.11,3.04-.18,4.57-.18Z"/>
  <path class="cls-61" d="M203.64,628.41v18h-14v-17c4.76-.57,9.2-1,14-1Z"/>
  <path class="cls-116" d="M203.64,465.41v17c-4.82,1.15-9.03,2.14-14,2-.03-2.81-.05-5.62-.06-8.44,0-.8-.02-1.6-.03-2.43,0-2.04.04-4.09.09-6.13,1.54-1.54,3.17-1.34,5.31-1.56q1.17-.13,2.36-.25c2.1-.17,4.22-.18,6.32-.18Z"/>
  <path class="cls-165" d="M203.64,105.41v18q-11.75,4-14,4v-18q12.88-4,14-4Z"/>
  <path class="cls-44" d="M203.64,498.41v17c-3.41.85-5.8,1.11-9.25,1.06-1.57-.02-3.14-.04-4.75-.06v-17q6-1,14-1Z"/>
  <path class="cls-97" d="M203.64,400.41v17c-4.82,1.15-9.03,2.14-14,2-.03-2.81-.05-5.62-.06-8.44,0-.8-.02-1.6-.03-2.43,0-2.04.04-4.09.09-6.13,2.7-2.7,10.5-2,14-2Z"/>
  <path class="cls-195" d="M203.64,367.41v17q-6,2-14,3v-18q11.75-2,14-2Z"/>
  <path class="cls-50" d="M203.64,236.41v17c-4.73,1.62-9.09,3.02-14,4v-18q11.75-3,14-3Z"/>
  <path class="cls-206" d="M203.64,433.41v17q-6,1-14,1v-17c4.96-.99,8.98-1.07,14-1Z"/>
  <path class="cls-175" d="M203.64,269.41v17q-10.62,3-14,3v-17q9.5-3,14-3Z"/>
  <path class="cls-74" d="M203.64,204.41v17q-9.5,3-14,3v-17c5.18-1.85,8.44-3,14-3Z"/>
  <path class="cls-72" d="M158.77,599.35q2.91.03,5.88.06v17c-2.12.19-4.25.37-6.44.56-1.19.1-2.39.21-3.62.32q-1.46.06-2.94.12-1-1-1.1-4.6c0-1.49.02-2.98.04-4.46,0-.76,0-1.52.01-2.3.01-1.88.03-3.76.05-5.64,2.76-1.38,5.05-1.1,8.12-1.06Z"/>
  <path class="cls-104" d="M164.64,567.41v17c-4.62.33-9.24.66-14,1v-17c4.64-1.55,9.12-1.06,14-1Z"/>
  <path class="cls-169" d="M203.64,302.41v17c-4.62.99-9.24,1.98-14,3v-18q9.5-2,14-2Z"/>
  <path class="cls-169" d="M203.64,138.41v17q-7,3-14,4v-17q12.88-4,14-4Z"/>
  <path class="cls-88" d="M183.64,371.41v17q-8,2-14,2v-17q10.62-2,14-2Z"/>
  <path class="cls-146" d="M183.64,338.41v17c-5.18,1.85-8.44,3-14,3v-17q11.75-3,14-3Z"/>
  <path class="cls-146" d="M183.64,274.41v17c-4.62.99-9.24,1.98-14,3v-17q9-3,14-3Z"/>
  <path class="cls-112" d="M203.64,171.41v17q-11.75,4-14,4v-18q10.62-3,14-3Z"/>
  <path class="cls-110" d="M183.64,145.41v17q-10.62,3-14,3v-17c5.18-1.85,8.44-3,14-3Z"/>
  <path class="cls-209" d="M150.64,695.41h14v17h-14v-17Z"/>
  <path class="cls-169" d="M189.64,694.41h14v17h-14v-17Z"/>
  <path class="cls-173" d="M203.64,335.41v16q-9.5,3-14,3v-17q8-2,14-2Z"/>
  <path class="cls-75" d="M183.64,306.41v17q-10.62,3.12-14,2v-16q12.88-3,14-3Z"/>
  <path class="cls-194" d="M183.64,242.41v16c-5.41,2.24-7.9,3-14,3v-16c5.18-1.85,8.44-3,14-3Z"/>
  <path class="cls-43" d="M183.64,209.41v17c-5.18,1.85-8.44,3-14,3v-16c1.24-.47,2.48-.95,3.75-1.44.7-.27,1.39-.53,2.11-.81,2.73-.96,5.23-1.75,8.14-1.75Z"/>
  <path class="cls-42" d="M183.64,177.41v16c-5.68,2.84-8.07,3.49-14,4v-16c5.31-2.66,8.28-4,14-4Z"/>
  <path class="cls-152" d="M183.64,112.41v17q-9.02,3.52-13,4-1-1-1.1-4.6c0-1.49.02-2.98.04-4.46,0-.76,0-1.52.01-2.3.01-1.88.03-3.76.05-5.64,1.96-.67,3.92-1.34,5.88-2,1.09-.37,2.18-.74,3.3-1.12q2.82-.88,4.82-.88Z"/>
  <path class="cls-185" d="M173.58,662.31c3.35.03,6.71.07,10.06.1v17h-14c-.03-2.65-.05-5.29-.06-7.94,0-.75-.02-1.51-.03-2.29,0-1.93.04-3.85.09-5.78q1-1,3.94-1.1Z"/>
  <path class="cls-142" d="M135.58,632.31c3.35.03,6.71.07,10.06.1v17h-14c-.03-2.65-.05-5.29-.06-7.94,0-.75-.02-1.51-.03-2.29,0-1.93.04-3.85.09-5.78q1-1,3.94-1.1Z"/>
  <path class="cls-101" d="M183.64,468.41v17c-2.12.35-4.25.7-6.44,1.06q-1.79.3-3.62.6c-.97.11-1.94.22-2.94.34q-1-1-1.1-4.6c0-1.49.02-2.98.04-4.46,0-.76,0-1.52.01-2.3.01-1.88.03-3.76.05-5.64,2.25-1.12,3.94-1.3,6.44-1.56.78-.08,1.56-.17,2.37-.25q2.19-.18,5.19-.18Z"/>
  <path class="cls-41" d="M164.64,279.41v16c-5.09,2.04-8.63,2.52-14,3v-17q8-2,14-2Z"/>
  <path class="cls-178" d="M164.64,470.41v18c-4.62.33-9.24.66-14,1v-16q11.75-3,14-3Z"/>
  <path class="cls-79" d="M183.64,436.41v16q-10.06,2.44-13,3c-1.82-1.82-1.13-4.31-1.14-6.73,0-.75,0-1.5.01-2.27,0-.75,0-1.5-.01-2.27q.01-5.6,1.14-6.73c4.46-.79,8.43-1,13-1Z"/>
  <path class="cls-228" d="M164.64,214.41v17c-5.09,2.04-8.63,2.52-14,3v-16q11.75-4,14-4Z"/>
  <path class="cls-123" d="M164.64,182.41v17c-4.78,1.91-9,2.95-14,4v-17q11.75-4,14-4Z"/>
  <path class="cls-123" d="M164.64,150.41v17c-1.2.47-2.39.95-3.62,1.44-.67.27-1.35.53-2.04.81q-2.34.75-8.34,1.75v-17q11.75-4,14-4Z"/>
  <path class="cls-125" d="M127.64,664.41v17c-2.12.19-4.25.37-6.44.56-1.19.1-2.39.21-3.62.32q-1.46.06-2.94.12-1-1-1.1-4.38c0-1.39.02-2.79.04-4.18,0-.71,0-1.42.01-2.15.01-1.76.03-3.52.05-5.28,5.23-2.09,7.88-2,14-2Z"/>
  <path class="cls-193" d="M127.64,633.41v17h-14v-16c4.64-1.55,9.12-1.06,14-1Z"/>
  <path class="cls-7" d="M164.64,535.41c.03,2.65.05,5.29.06,7.94,0,.75.02,1.51.03,2.29,0,1.93-.04,3.85-.09,5.78-2.55,2.55-10.91,1.79-14,2v-17c4.92-.7,9.1-1.1,14-1Z"/>
  <path class="cls-92" d="M183.64,533.41c.03,2.65.05,5.29.06,7.94,0,.75.02,1.51.03,2.29,0,1.93-.04,3.85-.09,5.78-1.81,1.81-4.55,1.42-7,1.62-1.09.1-2.19.19-3.31.29-.89.03-1.77.06-2.69.09q-1-1-1.1-4.6c0-1.49.02-2.98.04-4.46,0-.76,0-1.52.01-2.3.01-1.88.03-3.76.05-5.64,4.72-.77,9.22-1.1,14-1Z"/>
  <path class="cls-79" d="M164.64,503.41v17c-4.62.33-9.24.66-14,1v-16q7-2,14-2Z"/>
  <path class="cls-205" d="M183.64,500.41v17c-2.12.35-4.25.7-6.44,1.06q-1.79.3-3.62.6c-.97.11-1.94.22-2.94.34q-1-1-1.1-4.6c0-1.49.02-2.98.04-4.46,0-.76,0-1.52.01-2.3.01-1.88.03-3.76.05-5.64,1.58-.34,3.17-.67,4.75-1,.88-.19,1.76-.37,2.67-.56q2.58-.44,6.58-.44Z"/>
  <path class="cls-136" d="M164.64,407.41v16q-6,2-14,2v-16q7-2,14-2Z"/>
  <path class="cls-60" d="M164.64,343.41v16q-9.5,3-14,3v-17c4.97-1.19,8.85-2,14-2Z"/>
  <path class="cls-184" d="M145.64,156.41v17c-5.18,1.85-8.44,3-14,3v-16q10.62-4,14-4Z"/>
  <path class="cls-178" d="M164.64,118.41v17q-11.75,4-14,4v-17q11.75-4,14-4Z"/>
  <path class="cls-149" d="M117.58,696.31c3.35.03,6.71.07,10.06.1v16c-2.62,1.31-4.64,1.13-7.56,1.12-.99,0-1.98,0-3,0q-2.43-.13-3.43-1.13c-.1-2.51-.14-4.99-.12-7.5,0-.7,0-1.41-.01-2.13q.01-6.33,4.08-6.47Z"/>
  <path class="cls-185" d="M154.58,663.31c3.35.03,6.71.07,10.06.1v16c-3.15,1.05-5.39,1.1-8.69,1.06-.99,0-1.99-.02-3.01-.03q-1.14-.02-2.3-.04c-.03-2.65-.05-5.29-.06-7.94,0-.75-.02-1.51-.03-2.29,0-1.93.04-3.85.09-5.78q1-1,3.94-1.1Z"/>
  <path class="cls-132" d="M178.89,630.35c1.57.02,3.13.04,4.75.06v17h-14v-16c3.41-.85,5.8-1.11,9.25-1.06Z"/>
  <path class="cls-98" d="M127.64,476.41v16q-7,2-14,2v-16q7-2,14-2Z"/>
  <path class="cls-178" d="M164.64,439.41c.03,2.65.05,5.29.06,7.94,0,.75.02,1.51.03,2.29,0,1.93-.04,3.85-.09,5.78-2.55,2.55-10.91,1.79-14,2v-16c5.69-1.9,8.31-2.2,14-2Z"/>
  <path class="cls-192" d="M145.64,410.41v17c-2.12.35-4.25.7-6.44,1.06q-1.79.3-3.62.6c-.97.11-1.94.22-2.94.34-1.99-1.99-1.23-5.73-1.25-8.44-.02-.69-.04-1.39-.06-2.1q-.02-2.02.31-5.46c4.45-2.97,8.73-3,14-3Z"/>
  <path class="cls-178" d="M164.64,374.41v17q-6,2-14,2v-16q11.75-3,14-3Z"/>
  <path class="cls-98" d="M127.64,350.41v17c-4.97,1.19-8.85,2-14,2v-16q10.62-3,14-3Z"/>
  <path class="cls-40" d="M145.64,251.41v17q-9.5,3.12-14,2v-15q12-4,14-4Z"/>
  <path class="cls-178" d="M164.64,246.41v17q-9.5,3-14,3v-16q10-4,14-4Z"/>
  <path class="cls-208" d="M164.64,311.41v16q-9.5,3-14,3v-17c4.97-1.19,8.85-2,14-2Z"/>
  <path class="cls-36" d="M145.64,220.41v16c-5.18,1.85-8.44,3-14,3v-16q9.5-3,14-3Z"/>
  <path class="cls-25" d="M127.64,507.41v17q-6,1-14,1v-16c2.4-1.2,4.33-1.32,7-1.56.89-.08,1.77-.17,2.69-.25q2.31-.18,4.31-.18Z"/>
  <path class="cls-167" d="M145.64,442.41c.03,2.65.05,5.29.06,7.94,0,.75.02,1.51.03,2.29,0,1.93-.04,3.85-.09,5.78-1.81,1.81-4.55,1.42-7,1.62-1.09.1-2.19.19-3.31.29-.89.03-1.77.06-2.69.09-1.76-1.76-1.13-4.04-1.14-6.37,0-.7,0-1.41.01-2.13,0-.7,0-1.41-.01-2.13q.01-5.24,1.14-6.37c4.4-.66,8.55-1.05,13-1Z"/>
  <path class="cls-222" d="M127.64,413.41v17c-2.12.35-4.25.7-6.44,1.06q-1.79.3-3.62.6c-.97.11-1.94.22-2.94.34q-1-1-1.1-4.38c0-1.39.02-2.79.04-4.18,0-.71,0-1.42.01-2.15.01-1.76.03-3.52.05-5.28,1.39-.51,2.79-1.01,4.19-1.5.78-.28,1.55-.56,2.36-.84q2.46-.66,7.46-.66Z"/>
  <path class="cls-14" d="M127.64,382.41c.03,2.65.05,5.29.06,7.94,0,.75.02,1.51.03,2.29,0,1.93-.04,3.85-.09,5.78-1.88,1.88-5.04,1.39-7.56,1.56q-1.8.13-3.63.25c-.93.06-1.85.12-2.81.18-.05-2.46-.09-4.92-.12-7.38-.02-.7-.03-1.4-.05-2.12-.02-1.84.07-3.67.18-5.51,3.74-3.74,8.97-3.04,14-3Z"/>
  <path class="cls-168" d="M145.64,378.41v17q-8.38,2.12-14,1v-15q10.5-3,14-3Z"/>
  <path class="cls-130" d="M127.64,319.41v16q-8.38,3.12-14,2v-15q9-3,14-3Z"/>
  <path class="cls-78" d="M145.64,315.41v17q-8.38,2.12-14,1v-15c2.31-.66,4.62-1.32,7-2q3-1,7-1Z"/>
  <path class="cls-170" d="M127.64,225.41v16c-5.09,2.04-8.63,2.52-14,3v-16c5.18-1.85,8.44-3,14-3Z"/>
  <path class="cls-27" d="M145.64,188.41v17q-10.06,2.44-13,3-1-1-1.1-4.38c0-1.39.02-2.79.04-4.18,0-.71,0-1.42.01-2.15.01-1.76.03-3.52.05-5.28,1.58-.68,3.16-1.34,4.75-2,.88-.37,1.76-.74,2.67-1.12q2.58-.88,6.58-.88Z"/>
  <path class="cls-36" d="M145.64,125.41v16q-10.62,4.12-14,3v-15q8.38-4,14-4Z"/>
  <path class="cls-231" d="M135.58,664.31c3.35.03,6.71.07,10.06.1v16c-4.7.94-8.27,1.16-13,1-1.76-1.76-1.13-4.04-1.14-6.37,0-.7,0-1.41.01-2.13,0-.7,0-1.41-.01-2.13q.01-6.33,4.08-6.47Z"/>
  <path class="cls-36" d="M154.58,631.31c3.35.03,6.71.07,10.06.1v16c-5.02.84-9,1.09-14,1-.03-2.65-.05-5.29-.06-7.94,0-.75-.02-1.51-.03-2.29,0-1.93.04-3.85.09-5.78q1-1,3.94-1.1Z"/>
  <path class="cls-147" d="M135.58,569.31c3.35.03,6.71.07,10.06.1v16c-4.7.94-8.27,1.16-13,1-1.76-1.76-1.13-4.04-1.14-6.37,0-.7,0-1.41.01-2.13,0-.7,0-1.41-.01-2.13q.01-6.33,4.08-6.47Z"/>
  <path class="cls-38" d="M183.64,565.41v17c-4.62.33-9.24.66-14,1v-17c4.76-.57,9.2-1,14-1Z"/>
  <path class="cls-147" d="M145.64,505.41v16q-8.2,2.34-13,2c-1.76-1.76-1.13-4.04-1.14-6.37,0-.7,0-1.41.01-2.13,0-.7,0-1.41-.01-2.13q.01-5.24,1.14-6.37c1.62-.23,3.25-.41,4.88-.56q1.33-.13,2.68-.25,2.45-.18,5.45-.18Z"/>
  <path class="cls-112" d="M183.64,404.41v16c-4.97,1.19-8.85,2-14,2v-16q6-2,14-2Z"/>
  <path class="cls-220" d="M127.64,193.41v17q-9.5,3.12-14,2v-15c1.24-.47,2.48-.95,3.75-1.44.7-.27,1.39-.53,2.11-.81,2.73-.96,5.23-1.75,8.14-1.75Z"/>
  <path class="cls-226" d="M127.64,131.41v16c-5.18,1.85-8.44,3-14,3v-15q8.38-4,14-4Z"/>
  <path class="cls-18" d="M145.64,600.41v17c-2.12.19-4.25.37-6.44.56-1.19.1-2.39.21-3.62.32q-1.46.06-2.94.12c-1.76-1.76-1.13-4.04-1.14-6.37,0-.7,0-1.41.01-2.13,0-.7,0-1.41-.01-2.13q.01-5.24,1.14-6.37c1.62-.23,3.25-.41,4.88-.56q1.33-.13,2.68-.25,2.45-.18,5.45-.18Z"/>
  <path class="cls-119" d="M173.58,598.31c3.35.03,6.71.07,10.06.1v16c-4.62.33-9.24.66-14,1-.03-2.65-.05-5.29-.06-7.94,0-.75-.02-1.51-.03-2.29,0-1.93.04-3.85.09-5.78q1-1,3.94-1.1Z"/>
  <path class="cls-18" d="M145.64,473.41v17c-2.12.35-4.25.7-6.44,1.06q-1.79.3-3.62.6c-.97.11-1.94.22-2.94.34q-1-1-1.1-4.38c0-1.39.02-2.79.04-4.18,0-.71,0-1.42.01-2.15.01-1.76.03-3.52.05-5.28q10.38-3,14-3Z"/>
  <path class="cls-23" d="M145.64,346.41v17q-7,2-14,2v-16q11.75-3,14-3Z"/>
  <path class="cls-104" d="M125.64,287.41l2,1v16q-10.06,2.44-13,3-1-1-1.1-4.38c0-1.39.02-2.79.04-4.18,0-.71,0-1.42.01-2.15.01-1.76.03-3.52.05-5.28,4-1.33,8-2.67,12-4Z"/>
  <path class="cls-118" d="M145.64,283.41v17q-9,2.25-14,2c-.08-2.46-.14-4.92-.19-7.38-.03-.7-.05-1.4-.08-2.12q-.03-2.03.26-5.51c2.63-1.76,4.04-2.42,7-3.12.68-.17,1.36-.34,2.06-.51q1.94-.37,4.94-.37Z"/>
  <path class="cls-2" d="M127.64,256.41v16c-5.41,2.24-7.9,3-14,3v-15q9.04-4,14-4Z"/>
  <path class="cls-129" d="M122.89,539.28q2.35.06,4.75.12v16c-2.12.35-4.25.7-6.44,1.06q-1.79.3-3.62.6c-.97.11-1.94.22-2.94.34q-1-1-1.1-4.38c0-1.39.02-2.79.04-4.18,0-.71,0-1.42.01-2.15.01-1.76.03-3.52.05-5.28,3.21-1.91,5.54-2.22,9.25-2.12Z"/>
  <path class="cls-155" d="M145.64,537.41v16c-2.12.35-4.25.7-6.44,1.06q-1.79.3-3.62.6c-.97.11-1.94.22-2.94.34-1.76-1.76-1.13-4.04-1.14-6.37,0-.7,0-1.41.01-2.13,0-.7,0-1.41-.01-2.13q.01-5.24,1.14-6.37c4.46-.79,8.43-1,13-1Z"/>
  <path class="cls-197" d="M127.64,445.41v16c-2.12.35-4.25.7-6.44,1.06q-1.79.3-3.62.6c-.97.11-1.94.22-2.94.34q-1-1-1.1-4.38c0-1.39.02-2.79.04-4.18,0-.71,0-1.42.01-2.15.01-1.76.03-3.52.05-5.28,5.23-2.09,7.88-2,14-2Z"/>
  <path class="cls-130" d="M127.64,162.41v16q-10.62,4.12-14,3v-15c1.24-.47,2.48-.95,3.75-1.44.7-.27,1.39-.53,2.11-.81,2.73-.96,5.23-1.75,8.14-1.75Z"/>
  <path class="cls-5" d="M127.64,570.41c.03,2.65.05,5.29.06,7.94,0,.75.02,1.51.03,2.29,0,1.93-.04,3.85-.09,5.78-1.81,1.81-4.55,1.42-7,1.62-1.09.1-2.19.19-3.31.29-.89.03-1.77.06-2.69.09-1.76-1.76-1.13-4.04-1.14-6.37,0-.7,0-1.41.01-2.13,0-.7,0-1.41-.01-2.13q.01-5.24,1.14-6.37c1.43-.24,2.87-.41,4.31-.56q1.17-.13,2.36-.25c2.1-.17,4.22-.18,6.32-.18Z"/>
  <path class="cls-190" d="M127.64,602.41v16c-2.12.19-4.25.37-6.44.56-1.19.1-2.39.21-3.62.32q-1.46.06-2.94.12-1-1-1.1-4.38c0-1.39.02-2.79.04-4.18,0-.71,0-1.42.01-2.15.01-1.76.03-3.52.05-5.28,1.96-.36,3.92-.71,5.88-1.06,1.09-.2,2.18-.39,3.3-.6q2.82-.34,4.82.66Z"/>
  <path class="cls-129" d="M131.64,696.41h14v16h-14v-16Z"/>
  <path class="cls-180" d="M99.36,665.31c3.09.03,6.18.07,9.28.1v17h-13c-.03-2.65-.05-5.29-.06-7.94,0-.75-.02-1.51-.03-2.29,0-1.93.04-3.85.09-5.78q1-1,3.72-1.1Z"/>
  <path class="cls-172" d="M108.64,261.41v16q-8.5,3-13,3v-16q8.5-3,13-3Z"/>
  <path class="cls-90" d="M104.39,603.35c.8,0,1.6.02,2.42.03.6.01,1.21.02,1.83.04.03,2.65.05,5.29.06,7.94,0,.75.02,1.51.03,2.29,0,1.93-.04,3.85-.09,5.78q-1,1-3.72,1.1c-3.09-.03-6.18-.07-9.28-.1v-16c3.27-.82,5.47-1.11,8.75-1.06Z"/>
  <path class="cls-51" d="M108.64,354.41v17c-4.29.66-8.58,1.32-13,2v-16q9-3,13-3Z"/>
  <path class="cls-70" d="M108.64,572.41c.03,2.65.05,5.29.06,7.94,0,.75.02,1.51.03,2.29,0,1.93-.04,3.85-.09,5.78q-1,1-3.72,1.1c-3.09-.03-6.18-.07-9.28-.1v-16c4.58-.76,8.41-1.09,13-1Z"/>
  <path class="cls-178" d="M91.64,512.41v16c-4.29.66-8.58,1.32-13,2v-17q6-1,13-1Z"/>
  <path class="cls-21" d="M108.64,447.41v17q-9.28,1.66-12,2-1-1-1.1-4.6c0-1.49.02-2.98.04-4.46,0-.76,0-1.52.01-2.3.01-1.88.03-3.76.05-5.64,1.79-.34,3.58-.67,5.38-1,1-.19,2-.37,3.02-.56q2.6-.44,4.6-.44Z"/>
  <path class="cls-39" d="M108.64,168.41v16q-8.5,3-13,3v-16q8.5-3,13-3Z"/>
  <path class="cls-70" d="M103.83,541.35q2.38.03,4.81.06v16q-5,1-13,1v-16c3.01-1,5.04-1.1,8.19-1.06Z"/>
  <path class="cls-137" d="M91.64,481.41c.03,2.65.05,5.29.06,7.94,0,.75.02,1.51.03,2.29,0,1.93-.04,3.85-.09,5.78-1.81,1.81-4.61,1.38-7.06,1.56q-1.66.13-3.35.25c-.85.06-1.71.12-2.59.18-.03-2.65-.05-5.29-.06-7.94,0-.75-.02-1.51-.03-2.29,0-1.93.04-3.85.09-5.78,2.57-2.57,9.54-2,13-2Z"/>
  <path class="cls-140" d="M91.64,420.41v15c-4.66,2.33-7.85,2.55-13,3v-17q9.62-2.12,13-1Z"/>
  <path class="cls-157" d="M108.64,323.41v17q-8.5,2-13,2v-16q9.62-3,13-3Z"/>
  <path class="cls-230" d="M108.64,292.41v16c-4.93,2.01-7.56,3-13,3v-16q9-3,13-3Z"/>
  <path class="cls-117" d="M108.64,386.41v16c-2.31.33-4.62.66-7,1l-1,1h-5v-16q6-2,13-2Z"/>
  <path class="cls-105" d="M91.64,358.41v16q-7,2-13,2v-16c4.71-1.28,8.04-2,13-2Z"/>
  <path class="cls-182" d="M91.64,266.41c.08,2.46.14,4.92.19,7.38q.04,1.05.08,2.12.03,2.03-.26,5.51c-4.19,2.79-8.06,3.1-13,4v-17q9-2.25,13-2Z"/>
  <path class="cls-77" d="M108.64,230.41v16q-8.5,3-13,3v-16q9.62-3,13-3Z"/>
  <path class="cls-157" d="M91.64,204.41v16q-6.43,1.98-13,4v-17q8.5-3,13-3Z"/>
  <path class="cls-55" d="M108.64,199.41v16c-4.93,2.01-7.56,3-13,3v-16q9.62-3,13-3Z"/>
  <path class="cls-198" d="M91.64,173.41v16q-6.43,1.98-13,4v-17q9.62-3,13-3Z"/>
  <path class="cls-36" d="M108.64,137.41v16c-4.93,2.01-7.56,3-13,3v-16q8.5-3,13-3Z"/>
  <path class="cls-50" d="M108.64,479.41v16c-3.27.82-5.47,1.11-8.75,1.06q-2.1-.03-4.25-.06v-16q6-1,13-1Z"/>
  <path class="cls-138" d="M91.64,143.41v15c-1.59.66-3.18,1.32-4.81,2-.89.37-1.79.74-2.71,1.12q-2.48.88-5.48.88v-16q9.62-4.12,13-3Z"/>
  <path class="cls-23" d="M91.64,635.41v16q-7,1-13,1v-16q5-1,13-1Z"/>
  <path class="cls-146" d="M108.64,634.41v16c-3.01,1-5.04,1.1-8.19,1.06-1.59-.02-3.18-.04-4.81-.06v-16c4.39-.52,8.57-1,13-1Z"/>
  <path class="cls-23" d="M91.64,574.41c.03,2.48.05,4.96.06,7.44,0,.71.02,1.41.03,2.14,0,1.81-.04,3.61-.09,5.42q-1,1-3.72,1.1c-1.1-.01-2.2-.02-3.34-.04-1.1,0-2.21-.02-3.35-.03q-1.28-.02-2.59-.04c-.03-2.48-.05-4.96-.06-7.44q-.01-1.06-.03-2.14c0-1.81.04-3.61.09-5.42,2.94-2.94,9.33-2.11,13-1Z"/>
  <path class="cls-23" d="M86.83,451.35q2.38.03,4.81.06v15q-7,2-13,2v-16c3.01-1,5.04-1.1,8.19-1.06Z"/>
  <path class="cls-43" d="M91.64,389.41v16q-8.5,2-13,2v-16q8.5-2,13-2Z"/>
  <path class="cls-158" d="M91.64,327.41v16q-7,2-13,2v-15q9-3,13-3Z"/>
  <path class="cls-23" d="M91.64,235.41v15c-4.67,2.15-7.74,3.12-13,4v-16c4.93-2.01,7.56-3,13-3Z"/>
  <path class="cls-202" d="M108.64,510.41v16c-3.27.82-5.47,1.11-8.75,1.06q-2.1-.03-4.25-.06v-16c4.39-.52,8.57-1,13-1Z"/>
  <path class="cls-21" d="M108.64,416.41v17c-3.47.69-5.91,1.12-9.31,1.06q-1.83-.03-3.69-.06c-.03-2.48-.05-4.96-.06-7.44q-.01-1.06-.03-2.14c0-1.81.04-3.61.09-5.42,1.73-1.73,4.15-1.65,6.5-2.06,1-.18,2-.35,3.03-.54q2.47-.4,3.47-.4Z"/>
  <path class="cls-8" d="M91.64,297.41v15q-9.62,3-13,3v-16q6-2,13-2Z"/>
  <path class="cls-146" d="M91.64,543.41c.03,2.48.05,4.96.06,7.44,0,.71.02,1.41.03,2.14,0,1.81-.04,3.61-.09,5.42-2.46,2.46-9.97,1.78-13,2v-16c4.58-.76,8.41-1.09,13-1Z"/>
  <path class="cls-113" d="M91.64,605.41v15c-3.27.82-5.47,1.11-8.75,1.06q-2.1-.03-4.25-.06v-16c1.77-.19,3.55-.37,5.38-.56q1.5-.16,3.02-.32,2.6-.12,4.6.88Z"/>
  <path class="cls-156" d="M220.64,530.41c1.63.14,3.26.29,4.94.44q1.37.12,2.78.25,2.29.32,3.29,1.32c.07,2.86.09,5.7.06,8.56,0,.81,0,1.61-.01,2.44-.01,2-.03,4-.05,5.99-3.63-.33-7.26-.66-11-1v-18Z"/>
  <path class="cls-66" d="M220.64,596.41q7.71-.1,10,0,1,1,1.1,4.82c0,1.58-.02,3.16-.04,4.75,0,.81,0,1.61-.01,2.44-.01,2-.03,4-.05,5.99-3.63-.33-7.26-.66-11-1v-17Z"/>
  <path class="cls-229" d="M220.64,628.41c1.63.14,3.26.29,4.94.44q1.37.12,2.78.25,2.29.32,3.29,1.32c.07,2.7.09,5.37.06,8.06,0,.76,0,1.52-.01,2.3-.01,1.88-.03,3.76-.05,5.64h-11v-18Z"/>
  <path class="cls-200" d="M220.64,563.41c1.65.14,3.29.29,4.94.44q1.37.12,2.78.25,2.29.32,3.29,1.32c.07,2.7.09,5.37.06,8.06,0,.76,0,1.52-.01,2.3-.01,1.88-.03,3.76-.05,5.64-1.65.03-3.29.05-4.94.06-.92.01-1.83.02-2.78.04q-2.29-.1-3.29-1.1c-.07-2.86-.09-5.7-.06-8.56,0-.81,0-1.61.01-2.44.01-2,.03-4,.05-5.99Z"/>
  <path class="cls-76" d="M220.64,400.41c1.44.14,2.89.29,4.38.44l2.46.25q2.16.32,4.16,1.32v17q-8-1-11-2v-17Z"/>
  <path class="cls-82" d="M220.64,236.41c1.65.48,3.29.96,4.94,1.44q1.37.4,2.78.81,2.29.75,3.29,1.75c.07,2.86.09,5.7.06,8.56,0,.81,0,1.61-.01,2.44-.01,2-.03,4-.05,5.99-1.65-.48-3.29-.96-4.94-1.44-.92-.27-1.83-.53-2.78-.81q-2.29-.75-3.29-1.75c-.07-2.86-.09-5.7-.06-8.56,0-.81,0-1.61.01-2.44.01-2,.03-4,.05-5.99Z"/>
  <path class="cls-112" d="M220.64,105.41q9.88,3.88,11,5c.07,2.7.09,5.37.06,8.06,0,.76,0,1.52-.01,2.3-.01,1.88-.03,3.76-.05,5.64l-2,1c-3.11-1.12-6.01-2.59-9-4v-18Z"/>
  <path class="cls-187" d="M220.64,498.41c1.63.14,3.26.29,4.94.44q1.37.12,2.78.25,2.29.32,3.29,1.32c.07,2.7.09,5.37.06,8.06,0,.76,0,1.52-.01,2.3-.01,1.88-.03,3.76-.05,5.64-1.26.02-2.52.04-3.81.06-.71.01-1.42.02-2.14.04q-2.04-.1-5.04-1.1v-17Z"/>
  <path class="cls-31" d="M220.64,465.41c1.44.14,2.89.29,4.38.44l2.46.25q2.16.32,4.16,1.32v17q-8-1-11-2v-17Z"/>
  <path class="cls-97" d="M220.64,367.41q9.88,1.88,11,3c.07,2.7.09,5.37.06,8.06,0,.76,0,1.52-.01,2.3-.01,1.88-.03,3.76-.05,5.64q-2,1-4.16.44c-2.28-.81-4.56-1.63-6.84-2.44v-17Z"/>
  <path class="cls-53" d="M220.64,302.41q9.88,1.88,11,3c.07,2.7.09,5.37.06,8.06,0,.76,0,1.52-.01,2.3-.01,1.88-.03,3.76-.05,5.64q-2,1-4.16.44c-2.28-.81-4.56-1.63-6.84-2.44v-17Z"/>
  <path class="cls-54" d="M220.64,204.41q8.75,1.88,11,3v17q-6-1-11-3v-17Z"/>
  <path class="cls-4" d="M220.64,138.41c3.63,1.32,7.26,2.64,11,4v17q-8.14-1.36-11-4c-.62-2.92-.47-5.72-.31-8.69.02-.8.05-1.59.07-2.42.06-1.97.15-3.93.24-5.9Z"/>
  <path class="cls-76" d="M220.64,661.41c3.63.33,7.26.66,11,1v17q-8,0-11-1v-17Z"/>
  <path class="cls-210" d="M220.64,433.41c1.63.14,3.26.29,4.94.44q1.37.12,2.78.25,2.29.32,3.29,1.32c.07,2.7.09,5.37.06,8.06,0,.76,0,1.52-.01,2.3-.01,1.88-.03,3.76-.05,5.64-3.96.08-7.13-.03-11-1v-17Z"/>
  <path class="cls-11" d="M220.64,335.41c1.44.14,2.89.29,4.38.44l2.46.25q2.16.32,4.16,1.32v17q-7-1-11-3v-16Z"/>
  <path class="cls-195" d="M220.64,269.41q8.75,1.88,11,3v17q-6-1-11-3v-17Z"/>
  <path class="cls-57" d="M220.64,694.41h11v17h-11v-17Z"/>
  <path class="cls-68" d="M220.64,171.41q9.88,2.88,11,4c.07,2.7.09,5.37.06,8.06,0,.76,0,1.52-.01,2.3-.01,1.88-.03,3.76-.05,5.64l-2,1c-3.11-1.12-6.01-2.59-9-4v-17Z"/>
  <path class="cls-96" d="M299.64,512.41c1.63.14,3.26.29,4.94.44q1.37.12,2.78.25,2.29.32,3.29,1.32c.1,2.31.13,4.62.12,6.94,0,1.27,0,2.53,0,3.84q-.13,3.22-1.13,5.22c-3.3-.66-6.6-1.32-10-2v-16Z"/>
  <path class="cls-181" d="M299.64,358.41q7.88,1.12,11,3c.03,2.31.05,4.62.06,6.94.01,1.29.02,2.58.04,3.9q-.1,3.16-1.1,4.16-7.41-.71-10-2v-16Z"/>
  <path class="cls-195" d="M299.64,266.41c1.26.12,2.52.25,3.81.38q1.06.1,2.14.21,2.04.41,5.04,2.41c.22,2.63.28,5.01.19,7.62-.01.71-.03,1.41-.04,2.14-.04,1.75-.09,3.49-.15,5.23l-2,1c-3.11-1.12-6.01-2.59-9-4v-15Z"/>
  <path class="cls-219" d="M300.64,142.41q7,2.6,10,5,.49,3.36.31,7.19c-.05,1.27-.09,2.54-.14,3.86-.06.98-.12,1.95-.18,2.96q-3,1-5.04.22-1.06-.57-2.14-1.16c-.72-.38-1.43-.76-2.17-1.15-.54-.3-1.09-.6-1.64-.91-.03-2.48-.05-4.96-.06-7.44q-.01-1.06-.03-2.14c0-1.81.04-3.61.09-5.42l1-1Z"/>
  <path class="cls-26" d="M299.64,204.41c4.35.87,7.16,1.95,11,4,.05,2.29.09,4.58.12,6.88.02,1.28.05,2.55.07,3.87q-.2,3.26-2.2,5.26-4.45-1.98-9-4v-16Z"/>
  <path class="cls-153" d="M300.64,173.41c1.48.45,2.96.91,4.44,1.38.82.26,1.65.51,2.5.77q2.07.85,3.07,2.85c.07,2.37.08,4.75.06,7.12,0,1.28-.02,2.56-.03,3.88-.01.99-.02,1.97-.04,2.99l-2,1q-2.16-.78-4.62-1.94c-.82-.38-1.63-.76-2.48-1.15-.63-.3-1.25-.6-1.9-.91-.03-2.48-.05-4.96-.06-7.44q-.01-1.06-.03-2.14c0-1.81.04-3.61.09-5.42l1-1Z"/>
  <path class="cls-186" d="M300.64,481.41q7.6.6,10,3,.2,3.26.12,7.12c-.02,1.28-.04,2.56-.05,3.88-.02.99-.05,1.97-.07,2.99-4.25,1.42-6.72.19-11-1-.03-2.48-.05-4.96-.06-7.44q-.01-1.06-.03-2.14c0-1.81.04-3.61.09-5.42l1-1Z"/>
  <path class="cls-114" d="M300.64,419.41q2.03.27,4.5.81c.81.17,1.63.34,2.47.52q1.01.33,2.03.67c1.42,2.85,1.17,5.33,1.19,8.5.01,1.17.03,2.33.04,3.53q-.23,2.97-2.23,4.97c-2.97-.99-5.94-1.98-9-3-.03-2.48-.05-4.96-.06-7.44q-.01-1.06-.03-2.14c0-1.81.04-3.61.09-5.42l1-1Z"/>
  <path class="cls-36" d="M299.64,235.41q8.69,1.24,11,4,.39,3.36.25,7.19c-.04,1.27-.07,2.54-.11,3.86q-.07,1.46-.14,2.96-3,1-5.04.22c-1.99-1.07-3.97-2.15-5.96-3.22v-15Z"/>
  <path class="cls-64" d="M300.64,573.41q7.6.6,10,3,.2,3.26.12,7.12c-.02,1.28-.04,2.56-.05,3.88-.02.99-.05,1.97-.07,2.99-1.65.03-3.29.05-4.94.06-.92.01-1.83.02-2.78.04q-2.29-.1-3.29-1.1c-.1-2.51-.14-4.99-.12-7.5,0-.7,0-1.41-.01-2.13q.01-5.24,1.14-6.37Z"/>
  <path class="cls-93" d="M302.67,666.27c.81,0,1.63,0,2.47,0,.81,0,1.63,0,2.47,0q2.03.13,3.03,1.13c.13,2.31.18,4.62.19,6.94.01,1.27.03,2.53.04,3.84q-.23,3.22-2.23,5.22-2.16-.02-4.62-.38-1.23-.17-2.48-.34-.94-.14-1.9-.29c-.03-2.48-.05-4.96-.06-7.44q-.01-1.06-.03-2.14c0-1.81.04-3.61.09-5.42q1-1,3.03-1.13Z"/>
  <path class="cls-174" d="M299.64,451.41q7.88,0,11,2c.03,2.31.05,4.62.06,6.94.01,1.29.02,2.58.04,3.9q-.1,3.16-1.1,4.16-7.41-.71-10-2v-15Z"/>
  <path class="cls-49" d="M299.64,389.41c1.26.12,2.52.25,3.81.38q1.06.1,2.14.21,2.04.41,5.04,2.41.29,3.26.19,7.12c-.03,1.28-.05,2.56-.08,3.88-.03.99-.07,1.97-.11,2.99-4.59,1.53-6.78.03-11-2v-15Z"/>
  <path class="cls-47" d="M300.64,327.41c1.48.48,2.96.96,4.44,1.44.82.27,1.65.53,2.5.81q2.07.75,3.07,1.75c.07,2.35.08,4.71.06,7.06,0,1.29-.02,2.58-.03,3.91-.01,1-.02,2-.04,3.03-1.65-.14-3.29-.29-4.94-.44q-1.37-.12-2.78-.25-2.29-.32-3.29-1.32c-.1-2.51-.14-4.99-.12-7.5,0-.7,0-1.41-.01-2.13q.01-5.24,1.14-6.37Z"/>
  <path class="cls-134" d="M299.64,697.41c1.65-.03,3.29-.05,4.94-.06.92-.01,1.83-.02,2.78-.04q2.29.1,3.29,1.1c.1,2.33.13,4.67.12,7,0,1.28,0,2.56,0,3.88q-.13,3.12-1.13,4.12c-1.5.1-3,.13-4.5.12-.81,0-1.63,0-2.47,0q-2.03-.13-3.03-1.13c-.07-2.53-.09-5.03-.06-7.56,0-.71,0-1.42.01-2.15.01-1.76.03-3.52.05-5.28Z"/>
  <path class="cls-199" d="M300.64,635.41q2.03.09,4.5.38c.81.09,1.63.18,2.47.27q2.03.35,3.03,1.35c.07,2.35.08,4.71.06,7.06,0,1.29-.02,2.58-.03,3.91-.01,1-.02,2-.04,3.03-3.98,1.05-6.98.84-11,0-.03-2.48-.05-4.96-.06-7.44q-.01-1.06-.03-2.14c0-1.81.04-3.61.09-5.42l1-1Z"/>
  <path class="cls-84" d="M299.64,297.41c1.26.12,2.52.25,3.81.38q1.06.1,2.14.21,2.04.41,5.04,2.41.29,3.26.19,7.12c-.03,1.28-.05,2.56-.08,3.88-.03.99-.07,1.97-.11,2.99-4.44,1.48-6.73-.25-11-2v-15Z"/>
  <path class="cls-171" d="M300.64,604.41q2.03.09,4.5.38c.81.09,1.63.18,2.47.27q2.03.35,3.03,1.35c.1,2.33.13,4.67.12,7,0,1.28,0,2.56,0,3.88q-.13,3.12-1.13,4.12c-3.66.14-6.51.16-10-1-.03-2.48-.05-4.96-.06-7.44q-.01-1.06-.03-2.14c0-1.81.04-3.61.09-5.42l1-1Z"/>
  <path class="cls-226" d="M248.64,599.41q6.93-.1,9,0,1,1,1.1,4.6c0,1.49-.02,2.98-.04,4.46,0,.76,0,1.52-.01,2.3-.01,1.88-.03,3.76-.05,5.64-3.96,1.37-5.33.78-10,0v-17Z"/>
  <path class="cls-15" d="M299.64,543.41c1.63.14,3.26.29,4.94.44q1.37.12,2.78.25,2.29.32,3.29,1.32c.07,2.35.08,4.71.06,7.06,0,1.29-.02,2.58-.03,3.91-.01,1-.02,2-.04,3.03-4.77,1.4-5.72.76-11-1v-15Z"/>
  <path class="cls-183" d="M234.64,306.41c1.48.31,2.96.62,4.44.94.82.17,1.65.35,2.5.53q2.07.54,3.07,1.54c.07,2.86.09,5.7.06,8.56,0,.81,0,1.61-.01,2.44-.01,2-.03,4-.05,5.99-1.48-.31-2.96-.62-4.44-.94q-1.24-.26-2.5-.53-2.07-.54-3.07-1.54c-.07-2.86-.09-5.7-.06-8.56,0-.81,0-1.61.01-2.44.01-2,.03-4,.05-5.99Z"/>
  <path class="cls-71" d="M234.64,112.41q7,2,10,4c.22,2.95.28,5.68.19,8.62-.01.8-.03,1.6-.04,2.43-.04,1.98-.09,3.96-.15,5.95q-7.75-2.88-10-4v-17Z"/>
  <path class="cls-1" d="M248.64,567.41q8,0,10,1v16q-4,1-10,0v-17Z"/>
  <path class="cls-111" d="M234.64,371.41q4.95.99,10,2v17q-7-1-10-2v-17Z"/>
  <path class="cls-86" d="M234.64,338.41c3.3.99,6.6,1.98,10,3v17q-6-1-10-3v-17Z"/>
  <path class="cls-215" d="M234.64,209.41c3.3.99,6.6,1.98,10,3v17q-6-1-10-3v-17Z"/>
  <path class="cls-159" d="M234.64,145.41c3.92.53,6.39,1.2,10,3v17q-8.88-2.88-10-4c-.07-2.7-.09-5.37-.06-8.06,0-.76,0-1.52.01-2.3.01-1.88.03-3.76.05-5.64Z"/>
  <path class="cls-102" d="M234.64,662.41h10v17h-10v-17Z"/>
  <path class="cls-49" d="M261.64,632.41h10v17h-10v-17Z"/>
  <path class="cls-210" d="M234.64,468.41q8.88.88,10,2c.07,2.7.09,5.37.06,8.06,0,.76,0,1.52-.01,2.3-.01,1.88-.03,3.76-.05,5.64q-2,1-10-1v-17Z"/>
  <path class="cls-83" d="M234.64,274.41c1.48.31,2.96.62,4.44.94.82.17,1.65.35,2.5.53q2.07.54,3.07,1.54c.07,2.86.09,5.7.06,8.56,0,.81,0,1.61-.01,2.44-.01,2-.03,4-.05,5.99-1.48-.48-2.96-.96-4.44-1.44-.82-.27-1.65-.53-2.5-.81q-2.07-.75-3.07-1.75c-.07-2.7-.09-5.37-.06-8.06,0-.76,0-1.52.01-2.3.01-1.88.03-3.76.05-5.64Z"/>
  <path class="cls-78" d="M234.64,177.41c3.92.53,6.39,1.2,10,3v17q-8.88-2.88-10-4c-.07-2.7-.09-5.37-.06-8.06,0-.76,0-1.52.01-2.3.01-1.88.03-3.76.05-5.64Z"/>
  <path class="cls-59" d="M287.64,696.41q6.93-.1,9,0,1,1,1.1,4.6c0,1.49-.02,2.98-.04,4.46,0,.76,0,1.52-.01,2.3-.01,1.88-.03,3.76-.05,5.64h-10v-17Z"/>
  <path class="cls-164" d="M287.64,665.41q6.93-.1,9,0,1,1,1.1,4.6c0,1.49-.02,2.98-.04,4.46,0,.76,0,1.52-.01,2.3-.01,1.88-.03,3.76-.05,5.64h-10v-17Z"/>
  <path class="cls-1" d="M248.64,535.41c3.3.33,6.6.66,10,1v17c-3.3-.33-6.6-.66-10-1v-17Z"/>
  <path class="cls-212" d="M234.64,500.41q7,1,10,2v17c-3.3-.66-6.6-1.32-10-2v-17Z"/>
  <path class="cls-24" d="M234.64,436.41c3.3.33,6.6.66,10,1v18c-3.3-.99-6.6-1.98-10-3v-16Z"/>
  <path class="cls-214" d="M248.64,343.41q7.75.88,10,2v17q-6-1-10-3v-16Z"/>
  <path class="cls-80" d="M261.64,251.41c3.3.99,6.6,1.98,10,3v17c-3.3-.99-6.6-1.98-10-3v-17Z"/>
  <path class="cls-22" d="M234.64,242.41q7,1,10,2v17q-6-1-10-3v-16Z"/>
  <path class="cls-123" d="M248.64,150.41c3.33,1.33,6.67,2.67,10,4v17q-4.95-1.98-10-4v-17Z"/>
  <path class="cls-49" d="M274.64,696.41h10v17q-8,0-10-1v-16Z"/>
  <path class="cls-49" d="M274.64,664.41c3.3.33,6.6.66,10,1v16q-3,1-10,0v-17Z"/>
  <path class="cls-163" d="M274.64,633.41q8,0,10,1v16h-10v-17Z"/>
  <path class="cls-212" d="M234.64,533.41c3.3.33,6.6.66,10,1v17q-8.88-.88-10-2c-.07-2.7-.09-5.37-.06-8.06,0-.76,0-1.52.01-2.3.01-1.88.03-3.76.05-5.64Z"/>
  <path class="cls-123" d="M248.64,503.41q8.88.88,10,2c.07,2.7.09,5.37.06,8.06,0,.76,0,1.52-.01,2.3-.01,1.88-.03,3.76-.05,5.64-3.3-.33-6.6-.66-10-1v-17Z"/>
  <path class="cls-59" d="M274.64,476.41c1.48.14,2.96.29,4.44.44q1.24.12,2.5.25,2.07.32,3.07,1.32c.07,2.7.09,5.37.06,8.06,0,.76,0,1.52-.01,2.3-.01,1.88-.03,3.76-.05,5.64-1.48-.14-2.96-.29-4.44-.44-.82-.08-1.65-.16-2.5-.25q-2.07-.32-3.07-1.32c-.07-2.7-.09-5.37-.06-8.06,0-.76,0-1.52.01-2.3.01-1.88.03-3.76.05-5.64Z"/>
  <path class="cls-216" d="M248.64,470.41c3.3.99,6.6,1.98,10,3v16c-3.3-.33-6.6-.66-10-1v-18Z"/>
  <path class="cls-34" d="M248.64,407.41q7.75.88,10,2v16q-8.88-.88-10-2c-.07-2.7-.09-5.37-.06-8.06,0-.76,0-1.52.01-2.3.01-1.88.03-3.76.05-5.64Z"/>
  <path class="cls-145" d="M261.64,315.41q4.95.99,10,2v17c-3.3-.66-6.6-1.32-10-2v-17Z"/>
  <path class="cls-150" d="M248.64,311.41q7,1,10,2v17q-6-1-10-3v-16Z"/>
  <path class="cls-178" d="M248.64,279.41c3.92.53,6.39,1.2,10,3v16q-8.88-1.88-10-3c-.07-2.7-.09-5.37-.06-8.06,0-.76,0-1.52.01-2.3.01-1.88.03-3.76.05-5.64Z"/>
  <path class="cls-18" d="M248.64,246.41q4.95,1.98,10,4v16q-8.88-1.88-10-3c-.07-2.86-.09-5.7-.06-8.56,0-.81,0-1.61.01-2.44.01-2,.03-4,.05-5.99Z"/>
  <path class="cls-154" d="M261.64,220.41q8.88,1.88,10,3c.07,2.7.09,5.37.06,8.06,0,.76,0,1.52-.01,2.3-.01,1.88-.03,3.76-.05,5.64-3.92-.53-6.39-1.2-10-3v-16Z"/>
  <path class="cls-56" d="M261.64,188.41q5,1,10,3v17c-3.3-.99-6.6-1.98-10-3v-17Z"/>
  <path class="cls-90" d="M248.64,182.41q4.95,1.98,10,4v17c-3.3-.99-6.6-1.98-10-3v-18Z"/>
  <path class="cls-225" d="M261.64,125.41c3.69.63,6.43,1.57,10,3v17q-8.88-2.88-10-4c-.07-2.7-.09-5.37-.06-8.06,0-.76,0-1.52.01-2.3.01-1.88.03-3.76.05-5.64Z"/>
  <path class="cls-58" d="M248.64,663.41q6.93-.1,9,0,1,1,1.1,4.6c0,1.49-.02,2.98-.04,4.46,0,.76,0,1.52-.01,2.3-.01,1.88-.03,3.76-.05,5.64q-7.75.12-10-1v-16Z"/>
  <path class="cls-127" d="M261.64,600.41c3.3.33,6.6.66,10,1v17c-3.3-.33-6.6-.66-10-1v-17Z"/>
  <path class="cls-94" d="M274.64,539.41q8,0,10,1v17c-3.3-.66-6.6-1.32-10-2v-16Z"/>
  <path class="cls-163" d="M261.64,505.41c3.3.33,6.6.66,10,1v17q-8.88-.88-10-2c-.07-2.7-.09-5.37-.06-8.06,0-.76,0-1.52.01-2.3.01-1.88.03-3.76.05-5.64Z"/>
  <path class="cls-229" d="M248.64,439.41q8,1,10,2v16c-3.3-.33-6.6-.66-10-1v-17Z"/>
  <path class="cls-1" d="M261.64,410.41q4.95.99,10,2v16q-2,1-10-1v-17Z"/>
  <path class="cls-3" d="M234.64,404.41c3.3.33,6.6.66,10,1v17q-7-1-10-2v-16Z"/>
  <path class="cls-145" d="M248.64,374.41c3.3.99,6.6,1.98,10,3v16q-8.88-.88-10-2c-.07-2.86-.09-5.7-.06-8.56,0-.81,0-1.61.01-2.44.01-2,.03-4,.05-5.99Z"/>
  <path class="cls-189" d="M274.64,350.41q8.88,1.88,10,3c.07,2.7.09,5.37.06,8.06,0,.76,0,1.52-.01,2.3-.01,1.88-.03,3.76-.05,5.64-3.3-.66-6.6-1.32-10-2v-17Z"/>
  <path class="cls-178" d="M248.64,214.41q4.95,1.98,10,4v16q-8.88-1.88-10-3c-.07-2.86-.09-5.7-.06-8.56,0-.81,0-1.61.01-2.44.01-2,.03-4,.05-5.99Z"/>
  <path class="cls-112" d="M274.64,193.41q8.88,2.88,10,4c.07,2.7.09,5.37.06,8.06,0,.76,0,1.52-.01,2.3-.01,1.88-.03,3.76-.05,5.64-3.69-.63-6.43-1.57-10-3v-17Z"/>
  <path class="cls-20" d="M261.64,156.41q8.88,2.88,10,4c.07,2.7.09,5.37.06,8.06,0,.76,0,1.52-.01,2.3-.01,1.88-.03,3.76-.05,5.64-3.69-.63-6.43-1.57-10-3v-17Z"/>
  <path class="cls-64" d="M248.64,118.41c3.62,1.5,6.73,2.82,10,5,.22,2.79.28,5.35.19,8.12-.01.75-.03,1.51-.04,2.29-.04,1.86-.09,3.73-.15,5.59-1.48-.48-2.96-.96-4.44-1.44-.82-.27-1.65-.53-2.5-.81q-2.07-.75-3.07-1.75c-.07-2.86-.09-5.7-.06-8.56,0-.81,0-1.61.01-2.44.01-2,.03-4,.05-5.99Z"/>
  <path class="cls-106" d="M234.64,694.41c3.3.33,6.6.66,10,1v16h-10v-17Z"/>
  <path class="cls-1" d="M261.64,664.41h10v17c-3.3-.33-6.6-.66-10-1v-16Z"/>
  <path class="cls-69" d="M234.64,630.41q6.62-.12,10,1v16q-6.93.1-9,0-1-1-1.1-4.6c0-1.49.02-2.98.04-4.46,0-.76,0-1.52.01-2.3.01-1.88.03-3.76.05-5.64Z"/>
  <path class="cls-207" d="M274.64,507.41q8.88.88,10,2c.07,2.7.09,5.37.06,8.06,0,.76,0,1.52-.01,2.3-.01,1.88-.03,3.76-.05,5.64-3.3-.33-6.6-.66-10-1v-17Z"/>
  <path class="cls-6" d="M261.64,473.41q4.95.99,10,2v17c-3.3-.66-6.6-1.32-10-2v-17Z"/>
  <path class="cls-204" d="M287.64,447.41q4.95.99,10,2v17c-3.3-.66-6.6-1.32-10-2v-17Z"/>
  <path class="cls-200" d="M261.64,442.41c3.3.33,6.6.66,10,1v17q-8.88-.88-10-2c-.07-2.7-.09-5.37-.06-8.06,0-.76,0-1.52.01-2.3.01-1.88.03-3.76.05-5.64Z"/>
  <path class="cls-127" d="M274.64,413.41q4.95.99,10,2v17c-3.3-.66-6.6-1.32-10-2v-17Z"/>
  <path class="cls-6" d="M274.64,382.41c1.48.14,2.96.29,4.44.44q1.24.12,2.5.25,2.07.32,3.07,1.32c.07,2.7.09,5.37.06,8.06,0,.76,0,1.52-.01,2.3-.01,1.88-.03,3.76-.05,5.64-1.48-.14-2.96-.29-4.44-.44-.82-.08-1.65-.16-2.5-.25q-2.07-.32-3.07-1.32c-.07-2.7-.09-5.37-.06-8.06,0-.76,0-1.52.01-2.3.01-1.88.03-3.76.05-5.64Z"/>
  <path class="cls-229" d="M261.64,378.41q4.95.99,10,2v17c-3.3-.66-6.6-1.32-10-2v-17Z"/>
  <path class="cls-16" d="M287.64,354.41q8.88,1.88,10,3c.07,2.7.09,5.37.06,8.06,0,.76,0,1.52-.01,2.3-.01,1.88-.03,3.76-.05,5.64-3.3-.66-6.6-1.32-10-2v-17Z"/>
  <path class="cls-203" d="M287.64,323.41q8.88,1.88,10,3c.07,2.7.09,5.37.06,8.06,0,.76,0,1.52-.01,2.3-.01,1.88-.03,3.76-.05,5.64-3.3-.66-6.6-1.32-10-2v-17Z"/>
  <path class="cls-161" d="M274.64,319.41q8.88,1.88,10,3c.07,2.7.09,5.37.06,8.06,0,.76,0,1.52-.01,2.3-.01,1.88-.03,3.76-.05,5.64-3.3-.66-6.6-1.32-10-2v-17Z"/>
  <path class="cls-63" d="M261.64,283.41q8.88,1.88,10,3c.07,2.7.09,5.37.06,8.06,0,.76,0,1.52-.01,2.3-.01,1.88-.03,3.76-.05,5.64-3.39-.54-6.66-1.17-10-2v-17Z"/>
  <path class="cls-87" d="M274.64,225.41c3.92.53,6.39,1.2,10,3v16q-8.88-1.88-10-3c-.07-2.7-.09-5.37-.06-8.06,0-.76,0-1.52.01-2.3.01-1.88.03-3.76.05-5.64Z"/>
  <path class="cls-133" d="M274.64,162.41c3.3.99,6.6,1.98,10,3v17q-8.88-2.88-10-4c-.07-2.7-.09-5.37-.06-8.06,0-.76,0-1.52.01-2.3.01-1.88.03-3.76.05-5.64Z"/>
  <path class="cls-89" d="M274.64,131.41c3.92.53,6.39,1.2,10,3v16q-7-1-10-3c-.22-2.79-.28-5.35-.19-8.12.01-.75.03-1.51.04-2.29.04-1.86.09-3.73.15-5.59Z"/>
  <path class="cls-65" d="M248.64,631.41q6.93-.1,9,0,1,1,1.1,4.6c0,1.49-.02,2.98-.04,4.46,0,.76,0,1.52-.01,2.3-.01,1.88-.03,3.76-.05,5.64-3.3-.33-6.6-.66-10-1v-16Z"/>
  <path class="cls-49" d="M287.64,603.41q7,0,10,1v16q-8,0-10-1v-16Z"/>
  <path class="cls-45" d="M234.64,598.41h10v17c-3.3-.33-6.6-.66-10-1v-16Z"/>
  <path class="cls-94" d="M287.64,572.41c3.3.33,6.6.66,10,1v16q-6.93.1-9,0-1-1-1.1-4.6c0-1.49.02-2.98.04-4.46,0-.76,0-1.52.01-2.3.01-1.88.03-3.76.05-5.64Z"/>
  <path class="cls-16" d="M274.64,570.41c3.3.33,6.6.66,10,1v17c-3.3-.33-6.6-.66-10-1v-17Z"/>
  <path class="cls-143" d="M261.64,569.41q6.93-.1,9,0,1,1,1.1,4.6c0,1.49-.02,2.98-.04,4.46,0,.76,0,1.52-.01,2.3-.01,1.88-.03,3.76-.05,5.64-3.3-.33-6.6-.66-10-1v-16Z"/>
  <path class="cls-17" d="M234.64,565.41c3.3.33,6.6.66,10,1v17c-3.3-.33-6.6-.66-10-1v-17Z"/>
  <path class="cls-58" d="M261.64,346.41c3.3.99,6.6,1.98,10,3v16q-7-1-10-2v-17Z"/>
  <path class="cls-166" d="M274.64,287.41q8.88,2.88,10,4c.07,2.7.09,5.37.06,8.06,0,.76,0,1.52-.01,2.3-.01,1.88-.03,3.76-.05,5.64-3.3-.99-6.6-1.98-10-3v-17Z"/>
  <path class="cls-141" d="M287.64,261.41c1.48.31,2.96.62,4.44.94.82.17,1.65.35,2.5.53q2.07.54,3.07,1.54c.07,2.7.09,5.37.06,8.06,0,.76,0,1.52-.01,2.3-.01,1.88-.03,3.76-.05,5.64-1.48-.31-2.96-.62-4.44-.94q-1.24-.26-2.5-.53-2.07-.54-3.07-1.54c-.07-2.7-.09-5.37-.06-8.06,0-.76,0-1.52.01-2.3.01-1.88.03-3.76.05-5.64Z"/>
  <path class="cls-103" d="M274.64,256.41c1.48.48,2.96.96,4.44,1.44.82.27,1.65.53,2.5.81q2.07.75,3.07,1.75c.07,2.53.09,5.03.06,7.56,0,.71,0,1.42-.01,2.15-.01,1.76-.03,3.52-.05,5.28q-6.62-.75-10-3c-.22-2.79-.28-5.35-.19-8.12.01-.75.03-1.51.04-2.29.04-1.86.09-3.73.15-5.59Z"/>
  <path class="cls-224" d="M261.64,537.41c3.3.33,6.6.66,10,1v17c-3.3-.66-6.6-1.32-10-2v-16Z"/>
  <path class="cls-73" d="M274.64,445.41q8.88.88,10,2c.07,2.7.09,5.37.06,8.06,0,.76,0,1.52-.01,2.3-.01,1.88-.03,3.76-.05,5.64-3.3-.66-6.6-1.32-10-2v-16Z"/>
  <path class="cls-161" d="M287.64,292.41q8.88,1.88,10,3c.07,2.7.09,5.37.06,8.06,0,.76,0,1.52-.01,2.3-.01,1.88-.03,3.76-.05,5.64-3.69-.63-6.43-1.57-10-3v-16Z"/>
  <path class="cls-87" d="M287.64,199.41q6,1,10,3v16q-6-1-10-3v-16Z"/>
  <path class="cls-94" d="M287.64,168.41q5,1,10,3v16q-6-1-10-3v-16Z"/>
  <path class="cls-16" d="M274.64,601.41q4.95.99,10,2v16c-3.3-.33-6.6-.66-10-1v-17Z"/>
  <path class="cls-217" d="M287.64,541.41q7,0,10,1v16c-3.3-.33-6.6-.66-10-1v-16Z"/>
  <path class="cls-29" d="M287.64,479.41c3.3.33,6.6.66,10,1v16q-7,0-10-1v-16Z"/>
  <path class="cls-95" d="M287.64,230.41c3.69.63,6.43,1.57,10,3v16q-8.88-1.88-10-3c-.07-2.7-.09-5.37-.06-8.06,0-.76,0-1.52.01-2.3.01-1.88.03-3.76.05-5.64Z"/>
  <path class="cls-120" d="M287.64,137.41q5,1,10,3v16q-5-1-10-3v-16Z"/>
  <path class="cls-148" d="M287.64,510.41c3.3.33,6.6.66,10,1v16q-7,0-10-1v-16Z"/>
  <path class="cls-6" d="M287.64,386.41c1.48.14,2.96.29,4.44.44q1.24.12,2.5.25,2.07.32,3.07,1.32c.07,2.7.09,5.37.06,8.06,0,.76,0,1.52-.01,2.3-.01,1.88-.03,3.76-.05,5.64-1.48-.31-2.96-.62-4.44-.94q-1.24-.26-2.5-.53-2.07-.54-3.07-1.54c-.07-2.53-.09-5.03-.06-7.56,0-.71,0-1.42.01-2.15.01-1.76.03-3.52.05-5.28Z"/>
  <path class="cls-98" d="M287.64,634.41c3.3.33,6.6.66,10,1v16q-7,0-10-1v-16Z"/>
  <path class="cls-108" d="M287.64,416.41q4.95.99,10,2v16q-8.88-.88-10-2c-.07-2.7-.09-5.37-.06-8.06,0-.76,0-1.52.01-2.3.01-1.88.03-3.76.05-5.64Z"/>
  <path class="cls-81" d="M78.64,697.41h13v12c-2.9,1.45-4.56.45-7.62-.44q-1.5-.43-3.04-.87c-.77-.23-1.54-.46-2.34-.69v-10Z"/>
  <path class="cls-179" d="M234.64,727.41h10v14c-3.3-.33-6.6-.66-10-1v-13Z"/>
  <path class="cls-19" d="M117.58,696.31c3.35.03,6.71.07,10.06.1v16c-2.62,1.31-4.64,1.13-7.56,1.12-.99,0-1.98,0-3,0q-2.43-.13-3.43-1.13c-.1-2.51-.14-4.99-.12-7.5,0-.7,0-1.41-.01-2.13q.01-6.33,4.08-6.47ZM115.64,697.41v14h11v-14h-11Z"/>
  <path class="cls-160" d="M135.58,664.31c3.35.03,6.71.07,10.06.1v16c-4.7.94-8.27,1.16-13,1-1.76-1.76-1.13-4.04-1.14-6.37,0-.7,0-1.41.01-2.13,0-.7,0-1.41-.01-2.13q.01-6.33,4.08-6.47ZM133.64,665.41v14h11v-14h-11Z"/>
  <path class="cls-211" d="M108.64,354.41v17c-4.29.66-8.58,1.32-13,2v-16q9-3,13-3ZM102.64,356.85c-.72.27-1.44.53-2.19.81q-1.8.61-2.81,1.75c-.07,2.02-.08,4.04-.06,6.06,0,1.1.02,2.21.03,3.35.01.85.02,1.71.04,2.59q5.08.11,10-1v-15c-1.77,0-3.36.82-5,1.44Z"/>
  <path class="cls-131" d="M145.64,410.41v17c-2.12.35-4.25.7-6.44,1.06q-1.79.3-3.62.6c-.97.11-1.94.22-2.94.34-1.99-1.99-1.23-5.73-1.25-8.44-.02-.69-.04-1.39-.06-2.1q-.02-2.02.31-5.46c4.45-2.97,8.73-3,14-3ZM133.64,413.41v14q5.45-.5,11-1v-15c-3.93,0-7.2,1-11,2Z"/>
  <path class="cls-122" d="M300.64,604.41q2.03.09,4.5.38c.81.09,1.63.18,2.47.27q2.03.35,3.03,1.35c.1,2.33.13,4.67.12,7,0,1.28,0,2.56,0,3.88q-.13,3.12-1.13,4.12c-2.33.04-4.67.04-7,0v-1h6v-14h-7v14h-2c-.03-2.48-.05-4.96-.06-7.44q-.01-1.06-.03-2.14c0-1.81.04-3.61.09-5.42l1-1Z"/>
  <path class="cls-12" d="M127.64,602.41v16c-2.12.19-4.25.37-6.44.56-1.19.1-2.39.21-3.62.32q-1.46.06-2.94.12-1-1-1.1-4.38c0-1.39.02-2.79.04-4.18,0-.71,0-1.42.01-2.15.01-1.76.03-3.52.05-5.28,1.96-.36,3.92-.71,5.88-1.06,1.09-.2,2.18-.39,3.3-.6q2.82-.34,4.82.66ZM115.64,604.41v13h11v-14q-1.89-.03-3.81-.06c-.71-.01-1.42-.02-2.14-.04q-2.25.02-5.04,1.1Z"/>
  <path class="cls-201" d="M145.64,537.41v16c-2.12.35-4.25.7-6.44,1.06q-1.79.3-3.62.6c-.97.11-1.94.22-2.94.34-1.76-1.76-1.13-4.04-1.14-6.37,0-.7,0-1.41.01-2.13,0-.7,0-1.41-.01-2.13q.01-5.24,1.14-6.37c4.46-.79,8.43-1,13-1ZM133.64,539.41v14q1.89.03,3.81.06c.71.01,1.42.02,2.14.04q2.25-.02,5.04-1.1v-14c-3.79,0-7.27.43-11,1Z"/>
  <path class="cls-85" d="M300.64,327.41l4,2h-3v14c2.31.33,4.62.66,7,1v-14c.66.33,1.32.66,2,1v14c-1.63-.14-3.26-.29-4.94-.44q-1.37-.12-2.78-.25-2.29-.32-3.29-1.32c-.1-2.51-.14-4.99-.12-7.5,0-.7,0-1.41-.01-2.13q.01-5.24,1.14-6.37Z"/>
  <path class="cls-37" d="M142.64,600.41h3v17c-2.12.19-4.25.37-6.44.56-1.19.1-2.39.21-3.62.32q-1.46.06-2.94.12c-1.76-1.76-1.13-4.04-1.14-6.37,0-.7,0-1.41.01-2.13,0-.7,0-1.41-.01-2.13q.01-5.24,1.14-6.37c2.67-.14,5.32-.04,8,0v1h-7v14h11v-15l-2-1Z"/>
  <path class="cls-135" d="M91.64,481.41c.03,2.65.05,5.29.06,7.94,0,.75.02,1.51.03,2.29,0,1.93-.04,3.85-.09,5.78-1.81,1.81-4.61,1.38-7.06,1.56q-1.66.13-3.35.25c-.85.06-1.71.12-2.59.18-.03-2.65-.05-5.29-.06-7.94,0-.75-.02-1.51-.03-2.29,0-1.93.04-3.85.09-5.78,2.57-2.57,9.54-2,13-2ZM79.64,483.41v15c3.3-.33,6.6-.66,10-1v-14h-10Z"/>
  <path class="cls-176" d="M145.64,473.41v17c-2.12.35-4.25.7-6.44,1.06q-1.79.3-3.62.6c-.97.11-1.94.22-2.94.34q-1-1-1.1-4.38c0-1.39.02-2.79.04-4.18,0-.71,0-1.42.01-2.15.01-1.76.03-3.52.05-5.28l4-1-2,1v14c3.63-.33,7.26-.66,11-1v-14h-6v-1q4.75-1,7-1Z"/>
  <path class="cls-137" d="M91.64,420.41v15c-4.66,2.33-7.85,2.55-13,3v-17c1.32.33,2.64.66,4,1h-3v14c3.3-.33,6.6-.66,10-1v-14h-5q3.62-2.12,7-1Z"/>
  <path class="cls-10" d="M126.64,445.41h1v16c-2.12.35-4.25.7-6.44,1.06q-1.79.3-3.62.6c-.97.11-1.94.22-2.94.34-1.76-1.76-1.13-4.04-1.14-6.37,0-.7,0-1.41.01-2.13,0-.7,0-1.41-.01-2.13q.01-5.24,1.14-6.37c1.67-.04,3.33-.04,5,0-1.32.33-2.64.66-4,1v14q5.45-.49,11-1v-15Z"/>
  <path class="cls-28" d="M248.64,246.41l3,2h-2c.33,4.62.66,9.24,1,14,1.98.66,3.96,1.32,6,2v-14l-2-1c1.32.33,2.64.66,4,1v16q-8.88-1.88-10-3c-.07-2.86-.09-5.7-.06-8.56,0-.81,0-1.61.01-2.44.01-2,.03-4,.05-5.99Z"/>
  <path class="cls-35" d="M180.64,178.41q-4,2-6.09,2.66-2.25,1.26-2.52,4.38c-.05,1.18-.09,2.37-.14,3.59-.06,1.19-.11,2.38-.17,3.6-.03.92-.05,1.83-.08,2.77q5.44-.99,11-2c-2.72,2.72-5.3,3.11-9,4h-4v-16q6.75-3.38,11-3Z"/>
  <path class="cls-223" d="M116.71,571.31q1.24.02,2.5.04c.83,0,1.65.02,2.5.03.64.01,1.28.02,1.93.04v1h-8v14h11v1c-1.98.19-3.96.38-5.94.56-1.1.1-2.2.21-3.34.32-.9.04-1.8.08-2.72.12-1.76-1.76-1.13-4.04-1.14-6.37,0-.7,0-1.41.01-2.13,0-.7,0-1.41-.01-2.13q.01-6.32,3.2-6.47Z"/>
  <path class="cls-128" d="M150.64,536.41c.99.33,1.98.66,3,1-.33,4.62-.66,9.24-1,14h11v1q-6.43.5-13,1v-17Z"/>
  <path class="cls-221" d="M169.64,534.41c.99.33,1.98.66,3,1-.33,4.62-.66,9.24-1,14h11v1c-1.98.19-3.96.38-5.94.56-1.1.1-2.2.21-3.34.32-.9.04-1.8.08-2.72.12q-1-1-1.1-4.6c0-1.49.02-2.98.04-4.46,0-.76,0-1.52.01-2.3.01-1.88.03-3.76.05-5.64Z"/>
  <path class="cls-213" d="M300.64,573.41c2.69.18,5.33.62,8,1v1h-7v14c1.32.33,2.64.66,4,1-1.67.04-3.33.04-5,0-1.76-1.76-1.13-4.04-1.14-6.37,0-.7,0-1.41.01-2.13,0-.7,0-1.41-.01-2.13q.01-5.24,1.14-6.37Z"/>
  <path class="cls-109" d="M223.64,368.41q6.88.88,8,2c.07,2.7.09,5.37.06,8.06,0,.76,0,1.52-.01,2.3-.01,1.88-.03,3.76-.05,5.64-.66.33-1.32.66-2,1q-2.12-.94-4-2h4v-15l-6-1v-1Z"/>
  <path class="cls-32" d="M114.64,321.41q2.06.44,4,1h-3v14h6q-3,2-5.69,1.62-1.14-.31-2.31-.62c-.03-2.48-.05-4.96-.06-7.44q-.01-1.06-.03-2.14c0-1.81.04-3.61.09-5.42l1-1Z"/>
  <path class="cls-100" d="M255.64,313.41h3v17q-6-1-8-3,2.97.49,6,1c-.33-4.95-.66-9.9-1-15Z"/>
  <path class="cls-13" d="M304.64,267.41q4.88.88,6,2c.07,2.53.09,5.03.06,7.56,0,.71,0,1.42-.01,2.15-.01,1.76-.03,3.52-.05,5.28q-2,1-5.12.06-1.42-.53-2.88-1.06,3.75-1.12,6,0v-14l-4-2Z"/>
  <path class="cls-91" d="M256.64,345.41h2v17q-6-1-8-3,2.97.49,6,1v-15Z"/>
  <path class="cls-122" d="M97.64,325.41c.99.33,1.98.66,3,1l-2,1q-.47,3.05-.62,6.56c-.07,1.2-.15,2.4-.23,3.63-.05.93-.1,1.85-.15,2.81h5q-3,2-7,2v-16l2-1Z"/>
  <path class="cls-218" d="M300.64,142.41q2.47.99,5,2l-2,1c-.66-.33-1.32-.66-2-1v14c1.32.66,2.64,1.32,4,2q-4.88-.88-6-2c-.1-2.51-.14-4.99-.12-7.5,0-.7,0-1.41-.01-2.13q.01-5.24,1.14-6.37Z"/>
  <path class="cls-126" d="M300.64,419.41c2.31.66,4.62,1.32,7,2q-3,1-6,0v14c.66.33,1.32.66,2,1-1.32-.33-2.64-.66-4-1-.03-2.48-.05-4.96-.06-7.44q-.01-1.06-.03-2.14c0-1.81.04-3.61.09-5.42l1-1Z"/>
  <path class="cls-162" d="M91.64,204.41v16c-1.65.33-3.3.66-5,1,.66-.66,1.32-1.32,2-2q.46-3.12.62-6.62c.07-1.19.15-2.38.23-3.6.05-.92.1-1.83.15-2.77-1.32-.33-2.64-.66-4-1q2-1,6-1Z"/>
  <path class="cls-30" d="M307.64,299.41c.99.33,1.98.66,3,1v14c-3.77,1.26-5.37.37-9-1,3.01-.93,3.87-1.04,7,0-.33-4.62-.66-9.24-1-14Z"/>
  <path class="cls-196" d="M91.64,173.41v16h-2v-14c-2.31.33-4.62.66-7,1,2.85-2.85,5.04-3,9-3Z"/>
  <path class="cls-9" d="M227.64,304.41l4,1v16c-.66.33-1.32.66-2,1-.99-.66-1.98-1.32-3-2h3v-15l-2-1Z"/>
  <path class="cls-48" d="M227.64,239.41l4,1v17c-1.32-.66-2.64-1.32-4-2h2v-15l-2-1Z"/>
  <path class="cls-191" d="M308.64,238.41l2,1v14c-3.62,1.21-4.64.54-8-1q3.75-1.12,6,0v-14Z"/>
  <path class="cls-137" d="M114.64,165.41c.99.33,1.98.66,3,1h-2v14c1.32.33,2.64.66,4,1-1.66.38-3.32.71-5,1-1.76-1.76-1.13-4.04-1.14-6.37,0-.7,0-1.41.01-2.13,0-.7,0-1.41-.01-2.13q.01-5.24,1.14-6.37Z"/>
  <path class="cls-151" d="M132.64,191.41c.99.33,1.98.66,3,1h-2v14c1.32.33,2.64.66,4,1-1.66.38-3.32.71-5,1-1.76-1.76-1.13-4.04-1.14-6.37,0-.7,0-1.41.01-2.13,0-.7,0-1.41-.01-2.13q.01-5.24,1.14-6.37Z"/>
  <path class="cls-46" d="M227.64,174.41l4,1v16c-.66.33-1.32.66-2,1-.66-.66-1.32-1.32-2-2h2v-15l-2-1Z"/>
  <path class="cls-91" d="M228.64,109.41c.99.33,1.98.66,3,1v16c-.66.33-1.32.66-2,1-.66-.66-1.32-1.32-2-2h2l-1-16Z"/>
  <path class="cls-67" d="M91.64,327.41c.03,2.65.05,5.29.06,7.94,0,.75.02,1.51.03,2.29,0,1.93-.04,3.85-.09,5.78q-1,1-4.06,1.06c-.97-.02-1.94-.04-2.94-.06v-1c1.65-.33,3.3-.66,5-1v-13h-5c2.65-1.46,3.89-2,7-2Z"/>
  <path class="cls-188" d="M306.64,176.41h3c1.5,3,1.09,5.79,1.06,9.12,0,1.28-.02,2.56-.03,3.88-.01.99-.02,1.97-.04,2.99-.66.33-1.32.66-2,1-.99-.66-1.98-1.32-3-2h3v-14l-2-1Z"/>
  <path class="cls-52" d="M256.64,122.41l2,1v16c-1.32-.66-2.64-1.32-4-2h2v-15Z"/>
  <path class="cls-144" d="M169.64,309.41l2,1v14h6v1c-2.33.38-4.66.71-7,1q-1-1-1.1-4.6c0-1.49.02-2.98.04-4.46,0-.76,0-1.52.01-2.3.01-1.88.03-3.76.05-5.64Z"/>
  <path class="cls-213" d="M220.64,269.41q2.47.5,5,1c-.99.66-1.98,1.32-3,2q-.59,3.35-.69,7.12c-.07,1.28-.13,2.56-.2,3.88-.04.99-.07,1.97-.11,2.99h-1v-17Z"/>
  <path class="cls-121" d="M261.64,251.41l4,2q-.99.49-2,1v14h-2v-17Z"/>
  <path class="cls-115" d="M274.64,193.41l4,2q-.99.49-2,1v14h-2v-17Z"/>
  <path class="cls-107" d="M261.64,156.41l4,2q-.99.49-2,1v14h-2v-17Z"/>
</svg>